<svg xmlns="http://www.w3.org/2000/svg" viewBox="0 0 460 512.1"><defs><style>.cls-1{stroke:#000;stroke-miterlimit:10;}.cls-2{fill:#bcbec0;}</style></defs><title>MD_File_Icon_2</title><g id="Layer_1" data-name="Layer 1"><path d="M369.9,97.9,286,14A48,48,0,0,0,252.1-.1H48A48.16,48.16,0,0,0,0,48V464a48,48,0,0,0,48,48H336a48,48,0,0,0,48-48V131.9A48.23,48.23,0,0,0,369.9,97.9Zm-22.6,22.7a15.73,15.73,0,0,1,4.2,7.4H256V32.5a15.73,15.73,0,0,1,7.4,4.2ZM336,480H48a16,16,0,0,1-16-16V48A16,16,0,0,1,48,32H224V136a23.94,23.94,0,0,0,24,24H352V464A16,16,0,0,1,336,480Z" transform="translate(36.5 0.1)"/></g><g id="Layer_2" data-name="Layer 2"><rect class="cls-1" x="0.5" y="260.1" width="459" height="171" rx="12" ry="12"/><path class="cls-2" d="M47.29,411.74a13.69,13.69,0,0,1-9.4-3.52q-4-3.51-4-9.84a12.74,12.74,0,0,1,3.78-9.23A12.5,12.5,0,0,1,47,385.28a13,13,0,0,1,9.44,3.82,12.49,12.49,0,0,1,3.92,9.28q0,6.24-3.92,9.8A13.19,13.19,0,0,1,47.29,411.74Z" transform="translate(36.5 0.1)"/><path class="cls-2" d="M132.9,390.12,112.24,308V397q0,7.38-3.29,11.07a12.09,12.09,0,0,1-17.36,0q-3.34-3.64-3.34-11.12V295q0-8.44,4.39-11.38t11.87-2.95h8.08q7.3,0,10.59,1.32a8.87,8.87,0,0,1,4.88,4.75,72.78,72.78,0,0,1,3.61,11.16l18.72,70.57,18.72-70.57a73,73,0,0,1,3.6-11.16,8.87,8.87,0,0,1,4.88-4.75c2.2-.88,5.72-1.32,10.59-1.32h8.08q7.47,0,11.87,2.95T212.52,295V397q0,7.38-3.29,11.07a11.23,11.23,0,0,1-8.83,3.7,11,11,0,0,1-8.53-3.7q-3.35-3.69-3.34-11.07V308l-20.65,82.09q-2,8-3.3,11.73a16.24,16.24,0,0,1-4.7,6.81q-3.44,3.07-9.49,3.08a13.9,13.9,0,0,1-12.66-7,29,29,0,0,1-2.77-6.82Q134,394.16,132.9,390.12Z" transform="translate(36.5 0.1)"/><path class="cls-2" d="M255.5,280.69h34a91.76,91.76,0,0,1,22.76,2.46,41.89,41.89,0,0,1,17.23,9.23q20.12,17.24,20.12,52.38a102.69,102.69,0,0,1-2,21.19,62.81,62.81,0,0,1-6.24,17.27A53.54,53.54,0,0,1,330.56,397a44.55,44.55,0,0,1-11.34,7.47,51.09,51.09,0,0,1-13.22,4,101,101,0,0,1-16,1.14H256q-7.12,0-10.72-2.15a10,10,0,0,1-4.7-6.07,38.22,38.22,0,0,1-1.1-10.15V296.69q0-8.44,3.78-12.22C245.8,282,249.88,280.69,255.5,280.69Zm10.11,20.66V388.8h19.78q6.5,0,10.19-.35a32.09,32.09,0,0,0,7.65-1.76,20.88,20.88,0,0,0,6.85-4q13.1-11.07,13.1-38.14,0-19.08-5.76-28.57t-14.19-12.08a70,70,0,0,0-20.39-2.59Z" transform="translate(36.5 0.1)"/></g></svg>