<svg xmlns="http://www.w3.org/2000/svg" viewBox="0 0 423.5 512.1"><defs><style>.cls-1{stroke:#000;stroke-miterlimit:10;}.cls-2{fill:#bcbec0;}</style></defs><title>MD_File_Icon_1</title><g id="Layer_1" data-name="Layer 1"><path d="M369.9,97.9,286,14A48,48,0,0,0,252.1-.1H48A48.16,48.16,0,0,0,0,48V464a48,48,0,0,0,48,48H336a48,48,0,0,0,48-48V131.9A48.23,48.23,0,0,0,369.9,97.9Zm-22.6,22.7a15.73,15.73,0,0,1,4.2,7.4H256V32.5a15.73,15.73,0,0,1,7.4,4.2ZM336,480H48a16,16,0,0,1-16-16V48A16,16,0,0,1,48,32H224V136a23.94,23.94,0,0,0,24,24H352V464A16,16,0,0,1,336,480Z" transform="translate(0 0.1)"/></g><g id="Layer_2" data-name="Layer 2"><rect class="cls-1" x="162" y="296.1" width="261" height="135" rx="12" ry="12"/><path class="cls-2" d="M195,396.4a8.5,8.5,0,0,1-5.85-2.19,7.75,7.75,0,0,1-2.46-6.12,7.91,7.91,0,0,1,2.35-5.74,7.77,7.77,0,0,1,5.8-2.41,8.11,8.11,0,0,1,5.88,2.38,8.46,8.46,0,0,1,0,11.87A8.26,8.26,0,0,1,195,396.4Z" transform="translate(0 0.1)"/><path class="cls-2" d="M248.25,383l-12.86-51.08v55.34c0,3.07-.68,5.36-2,6.9a7.53,7.53,0,0,1-10.8,0c-1.38-1.51-2.08-3.82-2.08-6.92V323.78c0-3.5.92-5.86,2.74-7.08a13,13,0,0,1,7.38-1.84h5a19.32,19.32,0,0,1,6.59.82,5.54,5.54,0,0,1,3,3,46.54,46.54,0,0,1,2.24,6.94l11.65,43.92,11.65-43.92a45.38,45.38,0,0,1,2.24-6.94,5.55,5.55,0,0,1,3-3,19.4,19.4,0,0,1,6.59-.82h5a13,13,0,0,1,7.38,1.84q2.73,1.83,2.73,7.08v63.43c0,3.07-.68,5.36-2.05,6.9a7,7,0,0,1-5.49,2.29,6.84,6.84,0,0,1-5.31-2.29c-1.38-1.54-2.08-3.83-2.08-6.9V331.87L270,383q-1.26,5-2.05,7.3a10.12,10.12,0,0,1-2.92,4.24,8.59,8.59,0,0,1-5.91,1.91,8.67,8.67,0,0,1-7.88-4.37,18,18,0,0,1-1.72-4.24Q248.9,385.47,248.25,383Z" transform="translate(0 0.1)"/><path class="cls-2" d="M324.54,314.86H345.7a57.06,57.06,0,0,1,14.16,1.53,26.13,26.13,0,0,1,10.72,5.75q12.53,10.71,12.53,32.59a63.84,63.84,0,0,1-1.26,13.18A39,39,0,0,1,378,378.66a33.33,33.33,0,0,1-6.72,8.55,27.33,27.33,0,0,1-7.06,4.65,31.58,31.58,0,0,1-8.23,2.46A61.78,61.78,0,0,1,346,395H324.86a13.3,13.3,0,0,1-6.67-1.34,6.26,6.26,0,0,1-2.92-3.78,23.75,23.75,0,0,1-.69-6.31V324.82c0-3.5.79-6,2.35-7.61S321,314.86,324.54,314.86Zm6.28,12.85v54.42h12.31q4,0,6.34-.22a20.2,20.2,0,0,0,4.76-1.09,13.31,13.31,0,0,0,4.27-2.46q8.14-6.9,8.14-23.74,0-11.87-3.58-17.77t-8.83-7.52a43.41,43.41,0,0,0-12.69-1.62Z" transform="translate(0 0.1)"/></g></svg>